<svg xmlns="http://www.w3.org/2000/svg" viewBox="0 0 224.94 139.11"><defs><style>.cls-1,.cls-2{fill:#fff;}.cls-1,.cls-3{stroke:#fff;stroke-miterlimit:10;stroke-width:2px;}.cls-3{fill:none;}.cls-4{fill:#ec7696;}.cls-5{fill:#d54a75;}</style></defs><g id="Layer_2" data-name="Layer 2"><g id="Layer_1-2" data-name="Layer 1"><path class="cls-1" d="M15.29,67.11a23.56,23.56,0,0,1-2.06-2.6,1.45,1.45,0,0,0-2.61,1.15c.07.2.13.4.19.6a5.12,5.12,0,0,1,.19.8,4.48,4.48,0,0,1,2,1.72l0-.12c.6.53,1.2,1,1.81,1.49A4.17,4.17,0,0,1,15.29,67.11Z"/><path class="cls-1" d="M15.92,15.19c0-7.4,6.68-13,16.45-13,7.76,0,18.48,7.75,21.17,16.45.15.48.94.18.94-.33L54.66,4.4c0-.48-.39-.64-.72-.29L51.69,6.49a1.68,1.68,0,0,1-2.16,0C45.47,3.08,39.84,1,32.47,1,21.16,1,11.7,6.45,11.7,17.45c0,25,42.47,19.64,42.47,42.88a12.59,12.59,0,0,1-.53,3.58.45.45,0,0,0,0,.36,4.73,4.73,0,0,1,.38,2.42,15.84,15.84,0,0,1-.56,3,15.76,15.76,0,0,0,4.9-11.85C58.39,31.54,15.92,37.09,15.92,15.19Z"/><path class="cls-1" d="M63.49,44.75c0-2.52-.79-3.38-3.31-3.38V41l6.91-2.52V65.35c0,7,3.38,9.29,7.85,9.29,7.34,0,12.67-7.13,12.67-13.25V44.75c0-2.52-.79-3.38-3.31-3.38V41l6.91-2.52V71.11c0,2.52.94,3,2,3a3.13,3.13,0,0,0,1.94-.65l.22.22a4.78,4.78,0,0,1-3.67,1.94c-1.8,0-4.11-.57-4.11-4.9v-5c-1.73,4.9-6.34,9.94-13,9.94-9,0-11.16-5.33-11.16-10.37Z"/><path class="cls-2" d="M112.24,75.86c-10.36,0-17.06-7.46-17.06-19s6.7-19,17.06-19c7.39,0,13.08,3.88,15.6,10.63a.28.28,0,0,1,0,.22.33.33,0,0,1-.16.15l-18.15,6.55c-6.59,2.37-9.22,6-8,11.19a12.23,12.23,0,0,0,11.1,7.34A16.56,16.56,0,0,0,127,66.06a.26.26,0,0,1,.24-.13.35.35,0,0,1,.14,0l.65.36a.29.29,0,0,1,.11.38A17.64,17.64,0,0,1,112.24,75.86Zm0-36.73c-7.54,0-12.6,7.12-12.6,17.72a27.2,27.2,0,0,0,.52,5.41c.67-3.78,3.66-6.34,9.83-8.56L123,49a.78.78,0,0,0,.46-.38.65.65,0,0,0,0-.55C121.42,42.37,117.32,39.13,112.24,39.13Z"/><path class="cls-3" d="M112.24,75.86c-10.36,0-17.06-7.46-17.06-19s6.7-19,17.06-19c7.39,0,13.08,3.88,15.6,10.63a.28.28,0,0,1,0,.22.33.33,0,0,1-.16.15l-18.15,6.55c-6.59,2.37-9.22,6-8,11.19a12.23,12.23,0,0,0,11.1,7.34A16.56,16.56,0,0,0,127,66.06a.26.26,0,0,1,.24-.13.35.35,0,0,1,.14,0l.65.36a.29.29,0,0,1,.11.38A17.64,17.64,0,0,1,112.24,75.86Zm0-36.73c-7.54,0-12.6,7.12-12.6,17.72a27.2,27.2,0,0,0,.52,5.41c.67-3.78,3.66-6.34,9.83-8.56L123,49a.78.78,0,0,0,.46-.38.65.65,0,0,0,0-.55C121.42,42.37,117.32,39.13,112.24,39.13Z"/><path class="cls-1" d="M9.24,81.1c0-1.94,1.06-3.94,2.9-6a2.41,2.41,0,0,1,3.24-.25c6.49,5.13,16.32,7.1,27,4.55,7.84-1.87,14-7.62,15.68-14.83A22,22,0,0,0,56.49,49a33,33,0,0,0-3-4.28c-4.58-5-11.81-8-20.26-8-14.5,0-25.56,8.73-25.56,21.82a20.27,20.27,0,0,0,4.21,12.58,1.87,1.87,0,0,1-.18,2.5c-2.55,2.65-4,5.38-4,8.19,0,22.49,55.68,2.8,55.68,23.5,0,10.41-16.59,16.56-32,16.56-13,0-24.95-4.36-24.95-14.1,0-3.91,1.84-7.49,7.5-10.52l-.25-.56C4.93,99.11,1,104.82,1,110.53c0,10,12.29,14.54,26.06,14.54,17.58,0,37.74-7.49,37.74-20.47C64.8,76.85,9.24,96.65,9.24,81.1Zm24-43.19c7.72,0,13.65,3.62,16.74,9.81a28.49,28.49,0,0,1,1.63,3.86.51.51,0,0,1,.36,0,.53.53,0,0,1,.3.23,3.41,3.41,0,0,1,.51,1,1.74,1.74,0,0,1,.08.64c0,.08-.06.15,0,.21a6,6,0,0,1,.3,1.29c.17,1.33.16,2.66.2,4a16.07,16.07,0,0,1-1.41,7.54l-.06.12c-4,7.49-9.79,12.8-18.61,12.8-6.39,0-11.6-2.52-14.91-7a26.53,26.53,0,0,1-2.89-5.56s0,0,0,0a26.53,26.53,0,0,1-1.23-8.22C14.15,45.86,21.77,37.91,33.2,37.91Z"/><path class="cls-1" d="M70.36,96.42A2.43,2.43,0,0,1,67.91,94c0-4.68,5.4-8.5,12-8.5,9.72,0,13.24,5.76,13.24,11v22c0,2.52.94,3,2,3a3.18,3.18,0,0,0,2-.65l.21.22a4.78,4.78,0,0,1-3.67,1.94c-1.8,0-4.11-.57-4.11-4.89V107.14C87,115.21,82.1,122.91,74,122.91c-5,0-9-2.66-9-7.7,0-12.89,24.55-11.45,24.55-19.95,0-7.12-6-9.07-9.64-9.07-4.47,0-8.5,2.23-9.87,5.33,1.51,0,2.74.79,2.74,2.45A2.43,2.43,0,0,1,70.36,96.42Zm19.22,1.44c-5.25,6.91-20.66,5.9-20.66,17.06,0,4.32,2.3,7.06,5.9,7.06,6.92,0,12.24-8.79,14.76-17.21Z"/><path class="cls-1" d="M207.31,117.87,216,95.19c1.15-3,2.23-8.71-.43-9v-.36h8.35v.36c-2.74.36-4.18,2.23-5.33,5.26l-14.54,37.87c-2.74,7.06-6.2,8.79-9.8,8.79-3.24,0-6.41-1.73-6.41-5.33a2.45,2.45,0,0,1,4.9,0,2.46,2.46,0,0,1-2.38,2.45,4.43,4.43,0,0,0,4.18,2.16c2.16,0,5.69-1,8.28-7.85l2.52-6.63-12.1-31.46c-1.15-3-2.59-4.9-5.32-5.26v-.36H199v.36c-2.67.29-3,2.23-1.88,5.26Z"/><path class="cls-1" d="M128,66.57a17.28,17.28,0,0,1-15.63,9c-10.15,0-16.77-7.42-16.77-18.72s6.62-18.72,16.77-18.72c7.42,0,12.89,3.89,15.34,10.44l-18.15,6.55c-6.4,2.31-9.5,5.91-8.2,11.52a12.4,12.4,0,0,0,11.37,7.56,16.86,16.86,0,0,0,14.62-8ZM123.2,49.22a1,1,0,0,0,.64-1.3c-2.08-5.69-6.19-9.07-11.52-9.07-7.7,0-12.89,7.13-12.89,18a26.69,26.69,0,0,0,.94,7.2c0-5.11,3.6-7.85,9.79-10.08Z"/><path class="cls-1" d="M105.52,71.07v-.76c0-2.52-.8-3.38-3.32-3.38v-.36l6.92-2.52v8.89A11.14,11.14,0,0,1,105.52,71.07ZM109.13,116V75.88a16.7,16.7,0,0,1-3.6-.95V116c0,3.24-1,5-3.67,5.26v.36h11v-.36C110.14,121,109.13,119.25,109.13,116Z"/><path class="cls-1" d="M117.55,72.74V70.31c0-2.52-.8-3.38-3.32-3.38v-.36l6.92-2.52v7.13A16.47,16.47,0,0,1,117.55,72.74ZM121.16,116V74a17.66,17.66,0,0,1-3.6,1.43V116c0,3.24-1,5-3.67,5.26v.36h10.94v-.36C122.17,121,121.16,119.25,121.16,116Z"/><path class="cls-1" d="M162.67,89.07v-.36l6.91-2.52V97l-3.6,9.28V92.46C166,89.94,165.19,89.07,162.67,89.07Zm6.91,27.87V106.35a32.58,32.58,0,0,1,.23-3.87c-.36.92-2.81,6.92-3.83,8.79v5.67c0,3.24-1,5-3.67,5.25v.36h10.94v-.36C170.59,121.91,169.58,120.18,169.58,116.94Z"/><path class="cls-1" d="M180.89,85.83c-5,0-8.7,4.1-10.75,11.34h0c-1.34,3.93-4.68,12.16-4.68,12.16a27.65,27.65,0,0,1-3.11,5.59,54.45,54.45,0,0,1-4.22,4.77A18,18,0,0,1,146,124.33a12.43,12.43,0,0,1-11.38-7.56c-1.3-5.62,1.8-9.22,8.21-11.53L161,98.69c-2.44-6.55-7.92-10.44-15.33-10.44-10.16,0-16.78,7.42-16.78,18.72s6.62,18.72,16.78,18.72a17.4,17.4,0,0,0,13-5.53l0,0a36.69,36.69,0,0,0,4.22-4.8,28.41,28.41,0,0,0,3.19-5.74s3.35-8.26,4.69-12.2c1.85-6.21,5.58-10.49,9.8-10.49A4.38,4.38,0,0,1,183.69,88a2.45,2.45,0,1,0,2.6,2.45C186.29,87.56,184.2,85.83,180.89,85.83ZM132.76,107c0-10.87,5.18-18,12.89-18,5.33,0,9.43,3.39,11.52,9.07a1,1,0,0,1-.65,1.3l-13,4.75c-6.2,2.23-9.8,5-9.8,10.08A27.12,27.12,0,0,1,132.76,107Z"/><path class="cls-2" d="M220.05,39.47a48.76,48.76,0,0,1-8.47,17.32C209,60.29,199.5,73.58,185.31,75c-22.14-3.81-41.41-26.28-41.47-42.75C146.43,15.26,162.18,8.56,172.66,9a16.92,16.92,0,0,1,7.89,3.13,18.32,18.32,0,0,1,5,5.2,21,21,0,0,1,1.79,3.39c2.38-3.53,5-6.61,12.67-9.06a14.58,14.58,0,0,1,13,1.69c3.23,1.8,4.45,3.67,6.07,6.47C222.15,25.21,221.9,33,220.05,39.47Z"/><path class="cls-4" d="M187.35,20.84c2.38-3.53,5-6.6,12.67-9a14.55,14.55,0,0,1,13,1.69c3.23,1.79,4.45,3.66,6.07,6.46,3.09,5.36,2.84,13.14,1,19.62a48.82,48.82,0,0,1-8.48,17.33C209,60.38,199.5,73.67,185.31,75,158,69.25,143.11,44.26,143.84,32.3c1.54.89,20.91,22.58,21.86,23.12a67.51,67.51,0,0,0,4.83-5.33c.42.21,1,.75,2.12,1.31.74-.84,2.4-2.65,2.49-2.73S187,59.18,190.51,61.92c.57-.76,1.57-1.81,2.16-2.77-3.51-3.89-11.53-12.3-13.54-14.75,1-1.1,2.6-2.37,3.54-3.42A13.43,13.43,0,0,0,181,38.82,37.59,37.59,0,0,0,185.84,34c-5.26-7.3-20.9-20.68-23.05-23.44a23.22,23.22,0,0,1,9.87-1.44,16.84,16.84,0,0,1,7.89,3.14,18.06,18.06,0,0,1,5,5.2,20.88,20.88,0,0,1,1.79,3.38"/><path class="cls-4" d="M154.62,33.62l-2-1a.37.37,0,0,0-.31,0l-2,.84a.37.37,0,0,1-.51-.41l.33-2.18a.36.36,0,0,0-.09-.3l-1.41-1.68a.38.38,0,0,1,.22-.62l2.17-.36a.41.41,0,0,0,.26-.17l1.15-1.88a.37.37,0,0,1,.65,0l1,2a.41.41,0,0,0,.25.19l2.13.52a.38.38,0,0,1,.17.63l-1.54,1.58a.42.42,0,0,0-.11.29l.17,2.2A.37.37,0,0,1,154.62,33.62Z"/><path class="cls-4" d="M158.64,38.81l-1.23-.56a.21.21,0,0,0-.19,0l-1.23.59a.23.23,0,0,1-.33-.23l.14-1.38a.28.28,0,0,0-.06-.18l-.93-1a.24.24,0,0,1,.12-.39l1.32-.3a.21.21,0,0,0,.15-.11l.65-1.22a.23.23,0,0,1,.4,0l.69,1.19a.21.21,0,0,0,.15.11l1.33.26a.24.24,0,0,1,.13.39l-.9,1a.25.25,0,0,0,0,.19l.17,1.37A.24.24,0,0,1,158.64,38.81Z"/><path class="cls-4" d="M162.62,32.73l-1.41-.62a.24.24,0,0,0-.22,0l-1.39.67a.26.26,0,0,1-.37-.26l.14-1.56a.26.26,0,0,0-.07-.21l-1.06-1.14a.26.26,0,0,1,.13-.44l1.5-.35a.24.24,0,0,0,.18-.13l.73-1.38a.26.26,0,0,1,.46,0l.78,1.34a.26.26,0,0,0,.18.13l1.52.28a.27.27,0,0,1,.15.44l-1,1.18a.26.26,0,0,0-.06.21l.2,1.55A.26.26,0,0,1,162.62,32.73Z"/><path class="cls-4" d="M152.27,19.05c.3-.26,2.29,1.58,3,2.33.22.22,2.19,2.16,1.94,2.47s-1.77-.65-2.93-1.82C152.89,20.59,152,19.29,152.27,19.05Z"/><path class="cls-4" d="M165,21.65c.34-.32,2.61,1.93,3.48,2.85.26.27,2.51,2.66,2.23,3s-1.88-.84-3.21-2.27C165.87,23.5,164.73,21.93,165,21.65Z"/><path class="cls-4" d="M172.72,29.59c.2-.19,1.62.93,2.14,1.46.15.16,1.44,1.71,1.27,1.93s-1.2-.34-2-1.16C173.15,30.8,172.54,29.75,172.72,29.59Z"/><path class="cls-4" d="M166.84,33.71c.27-.2,2,1.2,2.6,1.85.18.2,1.76,2,1.53,2.25s-1.58-.54-2.53-1.56C167.26,35,166.6,33.89,166.84,33.71Z"/><path class="cls-4" d="M162.23,39.25c.24-.18,1.81,1.09,2.38,1.69.17.18,1.61,1.83,1.4,2.05s-1.44-.49-2.31-1.42C162.62,40.41,162,39.41,162.23,39.25Z"/><path class="cls-4" d="M157.58,14.19c.36-.28,2.54,1.74,3.38,2.65.24.27,2.49,2.73,2.18,3.07s-2-1-3.26-2.4C158.3,15.74,157.25,14.44,157.58,14.19Z"/><path class="cls-5" d="M146.1,42.88C151.37,48,166,62.83,166,62.83l8.91-8.58,16.45,13.17,1.28-8.27-2.16,2.77L175.14,48.67l-2.49,2.73-2.12-1.31-4.83,5.33S148,35.74,143.84,32.3C143.48,34,144.74,40.38,146.1,42.88Z"/></g></g></svg>